<svg xmlns="http://www.w3.org/2000/svg" aria-hidden="true" overflow="hidden" style="position:absolute;width:0;height:0">
  <defs>
    <symbol id="icon-x" viewBox="0 0 32 32">
      <path stroke-linecap="round" stroke-linejoin="round" stroke-width="2" d="M24 8 8 24M8 8l16 16"/>
    </symbol>
    <symbol id="icon-btn-close-min" viewBox="0 0 32 32">
      <path stroke-linecap="round" stroke-width="2" d="m8 8 8 8 8-8M8 24l8-8 8 8"/>
    </symbol>
    <symbol id="icon-btn-close" viewBox="0 0 32 32">
      <path stroke-linecap="round" stroke-width="3.556" d="M1.778 1.778 16 16 30.222 1.778M1.778 30.222 16 16l14.222 14.222"/>
    </symbol>
    <symbol id="icon-arrow" viewBox="0 0 38 32">
      <path d="M.625 17.218a2.134 2.134 0 0 1 0-3.017L14.201.625a2.134 2.134 0 0 1 3.017 3.017L5.15 15.71l12.068 12.068a2.134 2.134 0 0 1-3.017 3.017L.625 17.219zm37.267.625H2.133v-4.267h35.759v4.267z"/>
    </symbol>
    <symbol id="icon-facebook" viewBox="0 0 32 32">
      <path d="M0 16C0 7.163 7.163 0 16 0s16 7.163 16 16-7.163 16-16 16S0 24.837 0 16zm17.668 9.408v-8.705h2.403l.319-3h-2.721l.004-1.501c0-.782.074-1.202 1.198-1.202h1.502V8H17.97c-2.887 0-3.903 1.455-3.903 3.902v1.801h-1.799v3h1.799v8.705h3.602z"/>
    </symbol>
    <symbol id="icon-instagram" viewBox="0 0 32 32">
      <path d="M0 16C0 7.163 7.163 0 16 0s16 7.163 16 16-7.163 16-16 16S0 24.837 0 16zm16.001-8.533c-2.317 0-2.608.01-3.519.052-.909.042-1.528.185-2.071.396-.561.218-1.037.51-1.512.984s-.766.95-.985 1.511c-.212.543-.356 1.163-.396 2.071-.041.91-.051 1.201-.051 3.519s.01 2.607.052 3.518c.042.909.186 1.529.396 2.071.218.561.51 1.037.984 1.512s.95.767 1.511.985c.543.211 1.163.355 2.072.396.91.041 1.201.052 3.518.052s2.608-.01 3.518-.052c.908-.042 1.529-.185 2.072-.396.561-.218 1.036-.51 1.511-.985s.766-.95.985-1.512c.21-.543.354-1.163.396-2.071.041-.91.052-1.2.052-3.518s-.011-2.608-.052-3.519c-.043-.909-.187-1.529-.396-2.071-.219-.561-.51-1.037-.985-1.512s-.949-.766-1.511-.984c-.544-.211-1.164-.355-2.073-.396-.91-.041-1.2-.052-3.518-.052h.003z"/>
      <path d="M15.235 9.005H16c2.278 0 2.549.008 3.448.049.832.038 1.284.177 1.584.294.398.155.682.34.981.638s.484.583.639.981c.117.3.256.752.294 1.584.041.899.05 1.17.05 3.447s-.009 2.548-.05 3.447c-.038.832-.177 1.284-.294 1.584-.155.398-.34.682-.639.98s-.582.483-.981.638c-.3.117-.752.256-1.584.294-.899.041-1.17.05-3.448.05s-2.549-.009-3.448-.05c-.832-.038-1.284-.177-1.585-.294-.398-.155-.683-.34-.981-.638s-.484-.582-.639-.981c-.117-.3-.256-.752-.294-1.584-.041-.9-.049-1.17-.049-3.449s.008-2.548.049-3.447c.038-.832.177-1.284.294-1.584.155-.398.34-.683.639-.981s.583-.484.981-.639c.301-.117.752-.256 1.585-.294.787-.036 1.092-.046 2.683-.048v.002zm5.321 1.417a1.024 1.024 0 1 0 0 2.048 1.024 1.024 0 0 0 0-2.048zm-4.555 1.196a4.382 4.382 0 1 0 0 8.764 4.382 4.382 0 0 0 0-8.764z"/>
      <path d="M16.001 13.155a2.845 2.845 0 1 1 0 5.69 2.845 2.845 0 0 1 0-5.69z"/>
    </symbol>
    <symbol id="icon-menu" viewBox="0 0 32 32">
      <path d="M29.333 24.007c0 0.733-0.595 1.327-1.327 1.327h-10.68c-0.733 0-1.327-0.594-1.327-1.327s0.594-1.327 1.327-1.327h10.68c0.733 0 1.327 0.593 1.327 1.327zM29.333 16c0 0.733-0.595 1.327-1.327 1.327h-24.013c-0.733 0-1.327-0.594-1.327-1.327s0.594-1.327 1.327-1.327h24.013c0.733 0 1.327 0.595 1.327 1.327zM28.007 9.32c0.733 0 1.327-0.594 1.327-1.327s-0.594-1.327-1.327-1.327h-16.013c-0.733 0-1.327 0.594-1.327 1.327s0.594 1.327 1.327 1.327h16.013z"></path>
    </symbol>
    <symbol id="icon-logo" viewBox="0 0 73 32">
      <path d="M3.355 6.701l-1.226-0.742c-0.767-0.468-1.317-0.927-1.643-1.378-0.304-0.426-0.485-0.958-0.485-1.532 0-0.015 0-0.030 0-0.045l-0 0.002c0-0.887 0.307-1.606 0.919-2.161 0.619-0.553 1.421-0.83 2.405-0.83 0.008-0 0.017-0 0.026-0 0.957 0 1.845 0.295 2.578 0.8l-0.015-0.010v1.831c-0.812-0.78-1.686-1.17-2.622-1.17-0.526 0-0.96 0.124-1.298 0.372-0.339 0.242-0.508 0.553-0.508 0.934 0 0.34 0.124 0.657 0.371 0.952 0.248 0.296 0.647 0.605 1.202 0.928l1.234 0.726c1.377 0.818 2.065 1.86 2.065 3.129 0 0.903-0.303 1.637-0.911 2.202-0.602 0.565-1.386 0.846-2.354 0.846-1.114 0-2.126-0.341-3.041-1.024v-2.047c0.869 1.1 1.878 1.652 3.023 1.652 0.506 0 0.924-0.139 1.257-0.419 0.339-0.285 0.508-0.64 0.508-1.064 0-0.689-0.494-1.339-1.483-1.951zM16.072 0.161h1.613v11.266h-1.613v-4.903h-6.331v4.903h-1.612v-11.266h1.613v4.871h6.33v-4.871zM25.709 0c1.742 0 3.191 0.551 4.347 1.654 1.161 1.101 1.742 2.484 1.742 4.145 0 1.662-0.586 3.038-1.758 4.129-1.166 1.086-2.641 1.629-4.42 1.629-1.699 0-3.115-0.543-4.25-1.629-1.129-1.091-1.693-2.457-1.693-4.097 0-1.683 0.57-3.075 1.709-4.177 1.14-1.102 2.581-1.654 4.322-1.654zM25.774 1.532c-1.29 0-2.353 0.404-3.186 1.21-0.828 0.806-1.242 1.836-1.242 3.089 0 1.216 0.416 2.227 1.249 3.033 0.834 0.806 1.877 1.21 3.13 1.21 1.258 0 2.306-0.412 3.145-1.234 0.843-0.823 1.266-1.848 1.266-3.073 0-1.193-0.422-2.197-1.266-3.008-0.839-0.818-1.871-1.226-3.097-1.226zM33.686 11.427v-11.283h3.572c1.076 0 1.933 0.291 2.573 0.871 0.64 0.581 0.96 1.361 0.96 2.339 0 0.655-0.165 1.237-0.492 1.742-0.328 0.506-0.777 0.873-1.347 1.105-0.57 0.226-1.386 0.339-2.452 0.339h-1.193v4.887h-1.621zM36.975 1.58h-1.669v3.524h1.766c0.657 0 1.161-0.153 1.516-0.459 0.355-0.312 0.532-0.756 0.532-1.332 0-1.155-0.714-1.733-2.145-1.733zM10.936 27.871c0 0.962-0.33 1.731-0.992 2.306-0.657 0.576-1.575 0.863-2.758 0.863h-6.46v-11.177h5.403c0.7 0 1.307 0.067 1.823 0.201 0.521 0.134 0.941 0.32 1.258 0.557 0.317 0.231 0.553 0.506 0.709 0.822 0.156 0.318 0.234 0.665 0.234 1.041 0 0.003 0 0.006 0 0.009 0 0.779-0.324 1.482-0.845 1.982l-0.001 0.001c-0.237 0.22-0.476 0.377-0.718 0.468 0.764 0.301 1.344 0.683 1.742 1.146 0.403 0.456 0.605 1.051 0.605 1.782zM6.999 23.081c0-0.538-0.178-0.896-0.532-1.074-0.355-0.178-0.908-0.266-1.662-0.266h-0.707v2.678h0.726c0.769 0 1.322-0.089 1.662-0.266 0.344-0.177 0.516-0.535 0.516-1.073zM7.548 27.734c0-0.957-0.694-1.435-2.081-1.435h-1.37v2.862h1.371c1.387 0 2.081-0.475 2.081-1.428zM24.886 31.040h-3.451l-0.911-2.266h-4.854l-0.928 2.266h-3.452l4.945-11.177h3.725l4.927 11.177zM19.749 26.83l-1.637-4.081-1.654 4.081h3.291zM38.129 31.040h-4.114l-4.273-5.234v5.234h-3.371v-11.177h3.37v5l4.049-5h3.661l-4.161 5.234 4.839 5.944zM48.023 31.040h-8.425v-11.177h8.291v2.242h-4.92v2.048h4.694v2.25h-4.694v2.388h5.056v2.25zM61.112 31.040h-3.621l-0.878-1.984c-0.323-0.726-0.613-1.255-0.871-1.589-0.258-0.339-0.511-0.553-0.758-0.645-0.243-0.096-0.557-0.145-0.943-0.145h-0.38v4.362h-3.368v-11.177h5.733c0.925 0 1.683 0.188 2.275 0.565 0.591 0.377 1.016 0.833 1.274 1.371 0.263 0.538 0.395 1.049 0.395 1.533 0 0.564-0.11 1.043-0.33 1.435-0.216 0.387-0.444 0.67-0.686 0.846-0.234 0.172-0.5 0.341-0.778 0.491l-0.036 0.018c0.361 0.21 0.657 0.459 0.888 0.749 0.236 0.285 0.556 0.866 0.96 1.742l1.128 2.427zM56.532 23.395c0-0.516-0.169-0.876-0.509-1.081-0.339-0.204-0.89-0.307-1.653-0.307h-0.71v2.694h0.726c0.823 0 1.385-0.089 1.686-0.266 0.307-0.183 0.46-0.53 0.46-1.041zM73.063 19.863l-4.377 6.057v5.121h-3.371v-5.056l-4.459-6.121h3.499l2.565 3.516 2.572-3.516h3.573z"></path>
    </symbol>
  </defs>
</svg>
